<?xml version="1.0" encoding="utf-8"?>
<!-- Generator: Adobe Illustrator 21.0.2, SVG Export Plug-In . SVG Version: 6.00 Build 0)  -->
<svg version="1.2" baseProfile="tiny" id="Layer_1" xmlns="http://www.w3.org/2000/svg" xmlns:xlink="http://www.w3.org/1999/xlink"
	 x="0px" y="0px" viewBox="0 0 51 51" overflow="scroll" xml:space="preserve">
<g>
	<g>
		<path fill="#FFFFFF" d="M40.9,14.1c6,6,6,15.8,0,21.9c-0.4,0.4-0.8,0.8-1.3,1.1c-0.1,0.1-0.3,0.5-0.2,0.6c0.2,0.2,2.5,2.5,2.7,2.7
			c0.2,0.2,0.7,0.1,0.8,0c0.4-0.3,0.8-0.7,1.2-1.1c7.9-7.9,7.9-20.6,0-28.5c-0.4-0.4-0.7-0.7-1.1-1c-0.4-0.4-0.9-0.3-1-0.1
			c-0.2,0.2-2.4,2.4-2.4,2.4s-0.5,0.6-0.1,0.8C40.1,13.3,40.5,13.7,40.9,14.1z"/>
		<path fill="#FFFFFF" d="M35,20.1c2.7,2.7,2.7,7.2,0,9.9c-0.4,0.4-0.9,0.8-1.4,1.1c-0.2,0.1-0.1,0.6,0,0.7c0.5,0.5,2.3,2.3,2.4,2.4
			c0.1,0.1,0.4,0.2,0.7,0c0.5-0.3,0.9-0.7,1.4-1.2c4.4-4.4,4.4-11.5,0-15.9c-0.4-0.4-0.9-0.8-1.4-1.2c-0.3-0.2-0.6-0.1-0.8,0.1
			c-0.2,0.2-2.1,2.1-2.3,2.3c-0.2,0.2-0.1,0.6,0.1,0.7C34,19.3,34.5,19.6,35,20.1z"/>
	</g>
	<rect x="2" y="15.6" fill="#FFFFFF" width="8.7" height="18.8"/>
	<polygon fill="#FFFFFF" points="31.3,48 15.1,34.4 15.1,15.6 31.3,2 	"/>
</g>
</svg>
